<svg version="1" xmlns="http://www.w3.org/2000/svg" width="1066.667" height="1056" viewBox="0 0 800.000000 792.000000"><path d="M14.5 2.4C8.5 5.2 4.8 9 2.1 15L0 19.5v753l2.4 5c2.8 6 6.6 9.7 12.6 12.4 4.2 1.9 6.5 2.1 32.5 2.1s28.3-.2 32.5-2.1c6-2.7 9.8-6.4 12.6-12.4l2.4-5v-753L92.9 15c-2.7-6-6.4-9.8-12.4-12.6C75.6.1 74.9 0 47.5 0s-28.1.1-33 2.4zm705 0c-6 2.8-9.7 6.6-12.4 12.6l-2.1 4.5v753l2.4 5c2.8 6 6.6 9.7 12.6 12.4 4.2 1.9 6.5 2.1 32.5 2.1s28.3-.2 32.5-2.1c6-2.7 9.8-6.4 12.6-12.4l2.4-5v-753l-2.1-4.5c-2.7-6-6.4-9.8-12.4-12.6-4.9-2.3-5.6-2.4-33-2.4s-28.1.1-33 2.4zM231.1 45.6c-16.9 4.5-33.7 19.6-41.1 36.9l-1.9 4.5H125v60h62.9l4.2 8.2c3.2 6.3 6.4 10.4 12.8 16.9 9.3 9.3 16.5 13.6 27.6 16.4 22.4 5.7 47.2-5.4 61.7-27.6l5.1-7.8 3.6 6.2c10.5 18 31.1 30.6 50.3 30.7 21.6 0 43.4-14.7 53.8-36.5l3.1-6.5H675V87H410.1l-2.5-5.6c-7.9-17.3-23.1-30.7-40.5-35.8-6.8-2-19.8-2-27.1-.1-13.8 3.7-27.7 14.2-36 27.3-2.5 4-4.7 7.1-5 7.1-.3 0-2.3-2.9-4.5-6.5-7.9-13-22.7-24.4-36-27.9-7.3-1.9-20.2-1.8-27.4.1zm47 279c-16.9 4.5-31.9 17.7-40.7 35.6l-2.8 5.8H125v60h109.6l2.8 5.7c20.7 42.5 69.6 50.1 98.3 15.4 3-3.6 7-9.9 9-13.9l3.6-7.2 61.1.1h61.1l3.9 8.2c3.1 6.5 5.7 9.9 12.5 16.7 9.6 9.5 17 14.1 27.2 16.5 18.2 4.3 36.6-.7 50.6-13.8 6.8-6.3 15.2-18.1 17.5-24.3l1.2-3.4H675v-60l-45.7-.1h-45.8l-4-8.2c-5.6-11.5-17.9-24-28.5-29-16.5-7.7-31.6-7.7-48 0-10.8 5.2-23.2 17.7-28.6 29l-3.9 8.2h-61.1l-61.1.1-3.6-7.3c-13.2-26.6-41.2-41-66.6-34.1zm-21.5 279c-8.2 2-19 7.9-25.8 14.3-6.2 5.7-15 18.1-16.9 23.8l-1.1 3.3H125v60h87.6l1.2 3.4c2.3 6.2 10.7 18 17.3 24.1C242.4 743 254.6 748 269 748c22.6 0 42-13.1 53.6-36.2l3.4-6.8h39.9l4 7.7c16.6 31.8 49.7 44.1 78.5 29.1 9.2-4.8 22.1-18.2 27.4-28.6l4.3-8.2H675v-60H479.4l-1.2-3.4c-2.3-6.3-10.8-18-17.5-24.2-17.9-16.4-41.1-19.8-62.7-9.1-9.8 4.8-22.4 17.8-27.5 28.4l-4 8.2h-20.2l-20.2.1-4.3-8.3c-5.7-10.9-18.4-24-27.8-28.5-12.6-6.1-24.9-7.6-37.4-4.6z" fill="#67cc99"/></svg>