<svg version="1" xmlns="http://www.w3.org/2000/svg" width="812" height="816" viewBox="0 0 609.000000 612.000000"><g fill="#67cc99"><path d="M219.6 1.1c-12.1 2.9-25.3 13.2-31.3 24.5-6.4 12-6.3 10.8-6.3 87.1V182h-69.7c-75.8 0-74.7-.1-86.2 5.7-6.8 3.4-16.6 13-20.3 19.9C-.3 219 0 208.3 0 395.5c0 141.4.3 171.9 1.4 176.1 3.4 12.7 13.1 25.2 24.4 31.2 12 6.4 6 6.2 144.5 6.2 69.1 0 125.7-.4 125.7-.9 0-.4-1.6-14.2-3.5-30.5-1.9-16.4-3.5-30.2-3.5-30.7s-44.7-.9-113-.9H63V245h119v68.6c0 76.3.1 77.1 6.6 88.1 6.5 10.8 15.5 18.2 27 22.5 5.4 1.9 8.3 2.2 32.7 2.6l26.9.4-.7-4.4c-1.1-7.8-6.5-55.3-6.5-57.1 0-1.5-1.2-1.7-11.5-1.7H245V245h119v37l30.7 15c16.8 8.3 31 15 31.5 15s.8-19.5.6-45.8c-.3-45.3-.3-45.7-2.7-51.5-3.8-9.7-10-17.7-17.7-23.2-13.2-9.5-7.9-9-89.6-9.3l-71.8-.3V63h301v301h-6.7c-3.7 0-6.3.4-5.7.8.5.4 14.2 7.3 30.4 15.2 16.2 7.9 31.4 15.6 33.8 17.2 2.4 1.5 4.7 2.8 5.2 2.8s1.9-2.6 3.2-5.8l2.3-5.7v-351l-2.3-5.7C602.9 23.6 596 14.7 589 9.6c-3.3-2.5-8.6-5.5-11.8-6.8L571.5.5l-174-.2c-103.7 0-175.6.3-177.9.8z"/><path d="M312.3 309c-3 1.6-4.8 3.4-6.3 6.5l-2.1 4.4L320 459.2c9.5 82 16.8 141.1 17.7 143.6 2.8 8 12.4 11.6 20 7.4 1.9-1 19.6-22.2 46-55.2l42.8-53.4 64.5-22.4c69.1-23.9 68.9-23.8 71.2-31.4 1.4-4.9-.1-10.4-3.9-14-3.7-3.4-253.8-125.9-258.3-126.4-2.3-.4-4.9.2-7.7 1.6z"/></g></svg>