<svg xmlns="http://www.w3.org/2000/svg" viewBox="0 0 58 58"><path fill="#71c285" d="M9 13.5h48v24H9z"/><path d="M58 38.5H8v-26h50v26zm-48-2h46v-22H10v22zm-1-31H4a1 1 0 1 1 0-2h5a1 1 0 1 1 0 2z" fill="#556080"/><path d="M9 14.5a1 1 0 0 1-1-1v-9a1 1 0 1 1 2 0v9a1 1 0 0 1-1 1zm0 34a1 1 0 0 1-1-1v-10a1 1 0 1 1 2 0v10a1 1 0 0 1-1 1z" fill="#556080"/><circle cx="19" cy="52.5" r="4" fill="#556080"/><circle cx="43" cy="52.5" r="4" fill="#556080"/><path d="M52 48.5H9a1 1 0 1 1 0-2h43a1 1 0 1 1 0 2z" fill="#556080"/><circle cx="3" cy="4.5" r="3" fill="#e64c3c"/><circle cx="30" cy="19.5" r="1" fill="#a4e869"/><circle cx="33" cy="16.5" r="1" fill="#a4e869"/><circle cx="33" cy="22.5" r="1" fill="#a4e869"/><circle cx="36" cy="19.5" r="1" fill="#a4e869"/><circle cx="24" cy="19.5" r="1" fill="#a4e869"/><circle cx="27" cy="16.5" r="1" fill="#a4e869"/><circle cx="27" cy="22.5" r="1" fill="#a4e869"/><circle cx="12" cy="19.5" r="1" fill="#a4e869"/><circle cx="18" cy="19.5" r="1" fill="#a4e869"/><circle cx="15" cy="16.5" r="1" fill="#a4e869"/><circle cx="21" cy="16.5" r="1" fill="#a4e869"/><circle cx="15" cy="22.5" r="1" fill="#a4e869"/><circle cx="21" cy="22.5" r="1" fill="#a4e869"/><circle cx="54" cy="19.5" r="1" fill="#a4e869"/><circle cx="39" cy="16.5" r="1" fill="#a4e869"/><circle cx="39" cy="22.5" r="1" fill="#a4e869"/><circle cx="42" cy="19.5" r="1" fill="#a4e869"/><circle cx="48" cy="19.5" r="1" fill="#a4e869"/><circle cx="30" cy="25.5" r="1" fill="#a4e869"/><circle cx="36" cy="25.5" r="1" fill="#a4e869"/><circle cx="24" cy="25.5" r="1" fill="#a4e869"/><circle cx="12" cy="25.5" r="1" fill="#a4e869"/><circle cx="18" cy="25.5" r="1" fill="#a4e869"/><circle cx="54" cy="25.5" r="1" fill="#a4e869"/><circle cx="42" cy="25.5" r="1" fill="#a4e869"/><circle cx="48" cy="25.5" r="1" fill="#a4e869"/><circle cx="45" cy="16.5" r="1" fill="#a4e869"/><circle cx="51" cy="16.5" r="1" fill="#a4e869"/><circle cx="45" cy="22.5" r="1" fill="#a4e869"/><circle cx="51" cy="22.5" r="1" fill="#a4e869"/><circle cx="30" cy="31.5" r="1" fill="#a4e869"/><circle cx="33" cy="28.5" r="1" fill="#a4e869"/><circle cx="33" cy="34.5" r="1" fill="#a4e869"/><circle cx="36" cy="31.5" r="1" fill="#a4e869"/><circle cx="24" cy="31.5" r="1" fill="#a4e869"/><circle cx="27" cy="28.5" r="1" fill="#a4e869"/><circle cx="27" cy="34.5" r="1" fill="#a4e869"/><circle cx="12" cy="31.5" r="1" fill="#a4e869"/><circle cx="18" cy="31.5" r="1" fill="#a4e869"/><circle cx="15" cy="28.5" r="1" fill="#a4e869"/><circle cx="21" cy="28.5" r="1" fill="#a4e869"/><circle cx="15" cy="34.5" r="1" fill="#a4e869"/><circle cx="21" cy="34.5" r="1" fill="#a4e869"/><circle cx="54" cy="31.5" r="1" fill="#a4e869"/><circle cx="39" cy="28.5" r="1" fill="#a4e869"/><circle cx="39" cy="34.5" r="1" fill="#a4e869"/><circle cx="42" cy="31.5" r="1" fill="#a4e869"/><circle cx="48" cy="31.5" r="1" fill="#a4e869"/><circle cx="45" cy="28.5" r="1" fill="#a4e869"/><circle cx="51" cy="28.5" r="1" fill="#a4e869"/><circle cx="45" cy="34.5" r="1" fill="#a4e869"/><circle cx="51" cy="34.5" r="1" fill="#a4e869"/></svg>