<svg xmlns="http://www.w3.org/2000/svg" viewBox="0 0 58 58"><path d="M29 48c-14.359 0-26-2.962-26-6v6.996C3.008 52.032 14.645 55 29 55s25.992-2.968 26-6.004V42c0 3.038-11.641 6-26 6" fill="#e4af18"/><path d="M26 37c-14.359 0-26-2.962-26-6v6.996C.008 41.032 11.645 44 26 44s25.992-2.968 26-6.004V31c0 3.038-11.641 6-26 6" fill="#f4bf1a"/><path d="M32 26c-14.359 0-26-2.962-26-6v6.996C6.008 30.032 17.645 33 32 33s25.992-2.968 26-6.004V20c0 3.038-11.641 6-26 6" fill="#e4af18"/><path d="M52 8.13C52 11.167 40.359 14 26 14S0 11.167 0 8.13C0 5.092 11.641 3 26 3s26 2.092 26 5.13" fill="#ffd949"/><path d="M26 14C11.641 14 0 11.038 0 8v6.996C.008 18.032 11.645 21 26 21s25.992-2.968 26-6.004V8c0 3.038-11.641 6-26 6" fill="#f4bf1a"/><path d="M4 11.074v6.995c.608.224 1.274.44 2 .646v-6.996a28.062 28.062 0 0 1-2-.645m42 .645v6.996a27.545 27.545 0 0 0 2-.646v-6.995c-.608.224-1.274.439-2 .645m-37 .726v6.997c.64.133 1.307.259 2 .378v-6.997a58.502 58.502 0 0 1-2-.378m32 .378v6.998a60.99 60.99 0 0 0 2-.379v-6.997c-.64.133-1.307.259-2 .378m-27 .446v6.998c.652.084 1.317.162 2 .232v-6.998a81.961 81.961 0 0 1-2-.232m22 .233V20.5a87.216 87.216 0 0 0 2-.232v-6.999c-.652.085-1.317.163-2 .233m-17 .257v6.999c.657.046 1.323.087 2 .12v-7a94.46 94.46 0 0 1-2-.119m12 .119v7a94.402 94.402 0 0 0 2-.12v-6.999a94.46 94.46 0 0 1-2 .119M26 14c-.335 0-.668-.003-1-.006v7c.332.003.665.006 1 .006s.668-.003 1-.006v-7c-.332.003-.665.006-1 .006" fill="#dca815"/><path d="M10 23.074v6.995c.608.224 1.274.44 2 .646v-6.996a28.062 28.062 0 0 1-2-.645m42 .645v6.996a27.545 27.545 0 0 0 2-.646v-6.995c-.608.224-1.274.439-2 .645m-37 .726v6.997c.64.133 1.307.259 2 .378v-6.997a58.502 58.502 0 0 1-2-.378m32 .378v6.998a60.99 60.99 0 0 0 2-.379v-6.997c-.64.133-1.307.259-2 .378m-27 .447v6.998c.652.084 1.317.162 2 .232v-6.998a87.216 87.216 0 0 1-2-.232m22 .231V32.5a87.216 87.216 0 0 0 2-.232V25.27c-.652.084-1.317.162-2 .231m-17 .258v6.999c.657.046 1.323.087 2 .12v-7a94.46 94.46 0 0 1-2-.119m12 .119v7a94.402 94.402 0 0 0 2-.12v-6.999a94.46 94.46 0 0 1-2 .119M32 26c-.335 0-.668-.003-1-.006v7c.332.003.665.006 1 .006s.668-.003 1-.006v-7c-.332.003-.665.006-1 .006" fill="#c49214"/><path d="M4 34.074v6.995c.608.224 1.274.439 2 .646v-6.996a28.062 28.062 0 0 1-2-.645m42 .645v6.996a27.545 27.545 0 0 0 2-.646v-6.995c-.608.224-1.274.439-2 .645m-37 .726v6.997c.64.133 1.307.259 2 .378v-6.997a58.502 58.502 0 0 1-2-.378m32 .378v6.998a60.99 60.99 0 0 0 2-.379v-6.997c-.64.133-1.307.259-2 .378m-27 .447v6.998c.652.084 1.317.162 2 .232v-6.998a87.216 87.216 0 0 1-2-.232m22 .231V43.5a87.216 87.216 0 0 0 2-.232V36.27c-.652.084-1.317.162-2 .231m-17 .258v6.999c.657.046 1.323.087 2 .12v-7a94.46 94.46 0 0 1-2-.119m12 .119v7a94.402 94.402 0 0 0 2-.12v-6.999a94.46 94.46 0 0 1-2 .119M26 37c-.335 0-.668-.003-1-.006v7c.332.003.665.006 1 .006s.668-.003 1-.006v-7c-.332.003-.665.006-1 .006" fill="#dca815"/><path d="M7 45.074v6.995c.608.224 1.274.439 2 .646v-6.996a28.062 28.062 0 0 1-2-.645m42 .645v6.996a27.545 27.545 0 0 0 2-.646v-6.995c-.608.224-1.274.439-2 .645m-37 .726v6.997c.64.133 1.307.259 2 .378v-6.997a58.502 58.502 0 0 1-2-.378m32 .378v6.998a60.99 60.99 0 0 0 2-.379v-6.997c-.64.133-1.307.259-2 .378m-27 .447v6.998c.652.084 1.317.162 2 .232v-6.998a87.216 87.216 0 0 1-2-.232m22 .231V54.5a87.216 87.216 0 0 0 2-.232V47.27c-.652.084-1.317.162-2 .231m-17 .258v6.999c.657.046 1.323.087 2 .12v-7a94.46 94.46 0 0 1-2-.119m12 .119v7a94.402 94.402 0 0 0 2-.12v-6.999a94.46 94.46 0 0 1-2 .119M29 48c-.335 0-.668-.003-1-.006v7c.332.003.665.006 1 .006s.668-.003 1-.006v-7c-.332.003-.665.006-1 .006" fill="#c49214"/><path d="M51.212 39.372C48.372 41.87 38.163 44 26 44c-9.51 0-17.823-1.303-22.356-3.065-.417.378-.644.778-.644 1.195C3 45.168 14.641 48 29 48c14.36 0 26-2.832 26-5.87 0-1.047-1.385-1.983-3.788-2.758" fill="#fcc62d"/><path d="M32 33c-13.213 0-24.116-2.515-25.774-5.283C2.347 28.596 0 29.767 0 31.13 0 34.167 11.641 37 26 37s26-2.833 26-5.87c0-.134-.03-.265-.075-.395C47.156 32.077 40.002 33 32 33" fill="#ffd949"/><path d="M50.993 16.549C47.882 18.969 37.874 21 26 21c-7.668 0-14.559-.848-19.318-2.1-.441.39-.682.8-.682 1.23C6 23.168 17.641 26 32 26s26-2.832 26-5.87c0-1.452-2.663-2.687-7.007-3.581" fill="#fcc62d"/></svg>