<svg xmlns="http://www.w3.org/2000/svg" viewBox="0 0 54 54"><path fill="#802f34" d="M0 0h18v54H0z"/><path fill="#c03a2b" d="M18 0h18v54H18z"/><path fill="#e64c3c" d="M36 0h18v54H36z"/><path fill="#fff" d="M4 4h10v20H4zm18 0h10v20H22zm18 0h10v20H40z"/><circle cx="9" cy="44" r="5" fill="#802f34"/><path d="M9 50c-3.309 0-6-2.691-6-6s2.691-6 6-6 6 2.691 6 6-2.691 6-6 6zm0-10c-2.206 0-4 1.794-4 4s1.794 4 4 4 4-1.794 4-4-1.794-4-4-4z" fill="#ecf0f1"/><circle cx="27" cy="44" r="5" fill="#802f34"/><path d="M27 50c-3.309 0-6-2.691-6-6s2.691-6 6-6 6 2.691 6 6-2.691 6-6 6zm0-10c-2.206 0-4 1.794-4 4s1.794 4 4 4 4-1.794 4-4-1.794-4-4-4z" fill="#ecf0f1"/><circle cx="45" cy="44" r="5" fill="#802f34"/><path d="M45 50c-3.309 0-6-2.691-6-6s2.691-6 6-6 6 2.691 6 6-2.691 6-6 6zm0-10c-2.206 0-4 1.794-4 4s1.794 4 4 4 4-1.794 4-4-1.794-4-4-4z" fill="#ecf0f1"/></svg>