<svg xmlns="http://www.w3.org/2000/svg" viewBox="0 0 60 60"><path d="M16 13H8a1 1 0 1 1 0-2h8a1 1 0 1 1 0 2zM3 13c-.26 0-.52-.11-.71-.29a1.013 1.013 0 0 1 0-1.42c.37-.37 1.04-.37 1.42 0 .18.189.29.439.29.71 0 .26-.11.52-.29.71-.19.18-.45.29-.71.29zm3-5H3a1 1 0 1 1 0-2h3a1 1 0 1 1 0 2zm10 0h-2a1 1 0 1 1 0-2h2a1 1 0 1 1 0 2zm-6 0c-.26 0-.52-.11-.71-.29C9.11 7.52 9 7.26 9 7s.11-.521.29-.71c.38-.37 1.04-.37 1.42 0 .18.189.29.45.29.71s-.11.52-.29.71c-.19.18-.45.29-.71.29z" fill="#d1d4d1"/><path fill="#f0c419" d="M4 44h8v15H4zm11 0h8v15h-8zm11 0h8v15h-8zm11 0h8v15h-8zm11 0h8v15h-8z"/><path fill="#71c285" d="M4 39h8v5H4zm11-10h8v15h-8zm11-6h8v21h-8zm11 11h8v10h-8zm11-21h8v31h-8z"/><path d="M59 2H1a1 1 0 1 1 0-2h58a1 1 0 1 1 0 2zm0 58H1a1 1 0 1 1 0-2h58a1 1 0 1 1 0 2z" fill="#556080"/></svg>