<svg version="1" xmlns="http://www.w3.org/2000/svg" width="626.667" height="650.667" viewBox="0 0 470.000000 488.000000"><g fill="#67cc99"><path d="M149 1c-12.2.6-14.6 1.4-18 5.7-2.1 2.6-2.1 3.4-1.5 16.4l.7 13.7-8.3 2.7c-9.6 3.2-23 9.6-30.8 14.9-2.9 2-5.7 3.6-6.1 3.6-.4 0-4.1-3.1-8.1-6.8C65.8 41 64.3 40 59.7 40c-3.7 0-4.7.6-9.7 5.7-3 3.2-8.8 9.5-12.8 14.1-6.5 7.4-7.2 8.6-7.2 12.5 0 4 .4 4.6 10.4 14.2l10.5 10L47 104c-4.5 9-9.3 22.3-10.9 30.5-.7 3.3-1.4 6.7-1.7 7.6-.4 1.3-2.8 1.7-13.7 2.3-14.3.7-16.9 1.6-19.5 7-1.9 3.8 0 35.7 2.4 39.3 3.1 4.9 10.1 5.8 29.6 3.9 3.7-.4 3.7-.4 5.3 4.9 2.7 9.3 8.6 22.3 14.1 31.1 3 4.8 5.4 8.9 5.4 9.3 0 .3-3.6 4.5-8 9.3-4.3 4.8-8.4 9.6-8.9 10.7-1.2 2.2-1.4 7.1-.5 9.5.7 1.8 23.9 22.8 27.1 24.4 1.2.7 3.6 1.2 5.4 1.2 3.3 0 5.9-2.2 18.2-15.8l4.9-5.3 9.1 4.5c10.8 5.2 19.2 8.1 30.2 10.5l8 1.7.8 12.9c1.3 21.3 2.2 21.9 27.3 20.4 18.5-1.1 20.6-1.7 22.9-7.2 1.2-3 1.3-12.7.1-24.9l-.4-3.7 8.2-2.7c10.6-3.5 22.5-9.2 30.7-14.7l6.6-4.5 7.9 7.2c4.4 3.9 9.2 8.2 10.8 9.4 3.2 2.4 7.9 2.8 11.3.9 3.3-1.8 24.3-25.7 24.9-28.4 1.2-4.8-.6-7.7-10.7-17.3l-10.1-9.6 4.1-8.2c4.9-9.7 9.5-23 11.2-32.3l1.2-6.6 14-1 14-.9 3-3.4 3-3.4-.6-17.1c-.4-9.5-1.1-18.4-1.6-19.9-.6-1.4-2.5-3.5-4.3-4.6-3-1.9-4.3-2-16.8-1.4l-13.5.6-2.3-7.7c-2.9-9.6-8.7-21.9-14.6-30.9l-4.6-6.8 8.4-9.2c8.8-9.7 10.6-12.3 10.6-15.5 0-4.2-2.7-7.5-15.3-18.6C257.5 30.6 256.6 30 252.5 30c-4.9 0-6.1 1-17.5 13.8l-6.5 7.2-6.8-3.6c-8.8-4.7-21.1-9.1-31.5-11.4-4.6-1-8.5-2-8.7-2.2-.2-.2-.7-5.5-1-11.8-.8-14.3-1.8-17.6-5.9-20.1-3.3-2-4.7-2.1-25.6-.9zm24.7 104.6c18.1 3.7 32.5 14.7 40.6 31 5.6 11.2 7.3 27.6 4.2 39.9-5.2 20.2-21.5 36.7-41.5 42-7.1 1.9-22 1.9-29.3 0-16.8-4.4-31.9-17.2-38.6-32.8-11.1-25.8-2.2-56.1 21-71.6 13.3-8.9 28-11.8 43.6-8.5zM382 186.2c-2.2 1.2-2.6 2.1-3 8.8l-.5 7.4-5.6 1.7c-3.1.9-8.1 3-11.2 4.6l-5.4 3-5.1-4.9c-3-2.8-6-4.8-7.3-4.8-1.4 0-4.6 2.3-8.6 6.3-7.9 7.9-8.1 9.9-1.8 16.6l4.5 4.8-3 5.8c-1.6 3.1-3.7 8.1-4.6 11.1l-1.5 5.4h-6.2c-9.8 0-10.7 1.1-10.7 12.4 0 11.7.8 12.6 10.3 12.6h6.6l1.6 5.7c.9 3.2 3.1 8.4 4.8 11.6l3 5.8-4.6 4.7c-6.4 6.5-6.2 8.2 1.6 16 7.8 7.7 9.5 7.9 15.9 1.5l4.7-4.6 5.8 3c3.2 1.7 8.4 3.9 11.6 4.8l5.7 1.6v6.8c0 9.2 1 10.1 12.1 10.1 11.3 0 12.3-.7 12.9-10l.5-7.2 5.5-1.8c3-.9 7.9-2.9 10.8-4.4l5.4-2.7 4.8 4.5c6.7 6.3 8.2 6.1 16.3-2.3 3.7-3.8 6.7-7.2 6.7-7.6 0-1.6-3.2-6.3-6.3-9.4l-3.5-3.3 3.3-6.7c1.9-3.6 3.9-8.7 4.6-11.4l1.1-4.7h6.8c9.4 0 10-.7 10-12.4 0-11.6-.8-12.6-10.1-12.6h-6.5l-1.8-5.8c-1-3.1-3.1-8.1-4.7-11.1l-2.9-5.4 5-5.3c2.8-2.9 5-6.1 5-7 0-2.4-13.2-15.4-15.6-15.4-1.1 0-4.2 2.2-6.8 4.9l-4.8 4.9-6.6-3.3c-3.6-1.9-8.7-4-11.4-4.6l-4.8-1.3v-6.2c0-9.2-1.6-10.8-11.7-11.2-5-.2-8.7.2-10.3 1zm21.7 53.4c17.9 8.6 20.7 33.5 5.3 46.7-17.6 15.1-46 2-46-21.2 0-21.6 21.3-34.9 40.7-25.5z"/><path d="M225.9 297.8c-13.7 5.9-14.1 6.6-9.4 18.1l3.2 8-6.2 5c-3.5 2.7-8.4 7.7-11 11-2.7 3.4-4.9 6.1-5 6.1-.1 0-3.5-1.4-7.5-3-8.4-3.5-10-3.6-12.8-1.3-2.5 2.1-9.2 18.5-9.2 22.3 0 3.5 2.1 5.3 10.3 8.5l6.7 2.7-.6 10.2c-.3 5.5-.2 12.6.3 15.7l1 5.7-7.9 3.2c-7.8 3.2-9.8 5-9.8 8.8 0 2.5 6.8 19.1 8.8 21.4 2.1 2.5 5.9 2.2 14-1.1l7-2.9 5 6.3c2.8 3.4 7.8 8.4 11.1 11l6 4.7-2.1 5.2c-3.8 9.3-4.3 12.2-2.7 14.6 1.7 2.6 18.7 10 22.9 10 3.5 0 5-1.9 8.5-10.6l2.9-7 5.5.9c5.3.8 21.3.3 24.2-.8 1-.4 2.3 1.7 4.4 6.7 3.3 8.2 5.5 10.8 8.8 10.8 3.2 0 20.9-7.7 22.5-9.7 1.8-2.5 1.5-5.2-1.7-12.7l-2.9-6.9 9.8-9.6c5.4-5.3 10.2-10.4 10.8-11.5.9-1.8 1.3-1.7 9.1 1.5 11.4 4.6 12.3 4.2 17.8-8.6 2.3-5.5 4.2-10.9 4.3-12 0-3.6-2.6-5.9-10.4-9l-7.6-3 .7-3.5c.9-4.6.9-19.5 0-24.1l-.7-3.6 6.7-2.8c7.7-3.2 11.3-6 11.3-8.7 0-3.3-8.2-21.8-10.1-22.8-2.9-1.6-6-1.1-13.4 2-6.4 2.8-7 2.9-7.8 1.2-.5-.9-5.4-6.1-10.8-11.4l-9.9-9.7 3.2-8.1c4.2-10.8 3.8-11.5-8.9-16.9-14.8-6.2-16-5.8-21.2 6.5-1.5 3.8-3.4 6.8-4 6.6-4.3-.9-19.6-1.2-24.3-.5l-5.7 1-2.8-6.9c-5-12.2-6.7-12.8-20.4-7zm49.1 58.8c10.1 3 18 9.9 22.7 19.9 2.4 5.1 2.8 7.3 2.8 14.5 0 7.5-.4 9.3-3.2 15.2-3.7 7.9-9.4 13.7-17.1 17.5-5 2.5-6.8 2.8-15.2 2.8-8.2 0-10.3-.4-15.2-2.7-15.4-7.2-23.8-25-19.8-41.7 4.6-19.3 25.6-31.3 45-25.5z"/></g></svg>