<svg version="1" xmlns="http://www.w3.org/2000/svg" width="793.333" height="816" viewBox="0 0 595.000000 612.000000"><g fill="#67cc99"><path d="M16 1.3C11.1 2.9 2.7 11.5 1.2 16.6c-1.8 6-1.8 572.8 0 578.8 1.6 5.5 9.9 13.8 15.4 15.4 3.1.9 31 1.2 115.5 1.2h111.4l5-2.4c11.6-5.5 17-17.6 13.3-29.8-1.6-5.3-8.7-13.1-14-15.4-4.1-1.8-9.2-1.9-101-2.2l-96.8-.3V50h410v139.1c0 104.6.3 140.2 1.2 143.1.6 2.2 3.1 6.2 5.5 8.8 5.6 6.2 11 8.4 19.7 7.8 11.8-.7 20.3-8.6 22.6-20.9.7-3.7.9-56.2.8-157-.3-151.1-.3-151.4-2.4-155.9-2.3-5.1-7.1-10.2-11.8-12.8C492.7.6 477.7.5 256 .3 85.4.2 18.5.5 16 1.3z"/><path d="M143.8 144c-12.5 2.2-21.8 14.1-20.5 26.4 1 9.5 6 16.6 14.7 20.5 4.4 2 5.9 2.1 121 2.1 110.7 0 116.7-.1 120.5-1.9 13-5.9 18.5-21.9 11.8-34.2-3-5.5-6.6-8.8-12.9-11.6-3.7-1.7-10.9-1.8-116.9-1.9-62.1-.1-115.1.2-117.7.6zm-4.7 136.7c-8.8 3.1-16.1 13.7-16.1 23.3 0 8.9 6.1 18.3 14.5 22.5 3.9 2 6.8 2 121.5 2h117.5l4.1-2.2c4.8-2.6 10.1-8.3 12.1-13.2 1.9-4.5 1.9-13.7 0-18.2-2-4.9-7.3-10.6-12.1-13.2l-4.1-2.2-116.5-.2c-103.5-.1-117 0-120.9 1.4zm421.3 99.6c-5.8 2.8-2.5-.7-87.3 93.7-30.4 33.8-55.6 61.6-56 61.8-.4.1-16.4-14.9-35.7-33.4-24.4-23.6-36.2-34.3-39.3-35.6-5.2-2.4-14.2-2.6-19.2-.5-5 2-10.6 7.3-13.2 12.1-3 5.8-3 15.5.1 21.7 3 6.1 89.8 90 97.4 94.1 6.2 3.4 15 3.8 21.3.9 5-2.3 3 0 89.5-96.4 48.8-54.3 73.2-82.3 74.7-85.5 2.6-5.5 3.1-14.5.9-19.6-5.3-12.7-21.2-19-33.2-13.3zM143.9 411c-6.2 1.1-9.8 3.1-14.1 7.8-11.6 12.8-7.6 32 8.2 39.1 4.3 2 6.4 2.1 43 2.1 43.2 0 43 0 50.3-7.5 5.1-5.2 7-10.9 6.5-18.9-.7-11.7-8.6-20.3-20.7-22.6-6.2-1.2-66.3-1.2-73.2 0z"/></g></svg>