<svg version="1" xmlns="http://www.w3.org/2000/svg" width="816" height="692" viewBox="0 0 612.000000 519.000000"><g fill="#67cc99"><path d="M448.7 1.1c-61.7 9-110 55.4-122.3 117.4-2.7 13.4-2.5 39.6.4 53.1 4.8 22.4 13.3 41.4 26.2 58.6 21 27.9 50.3 46.9 84.9 54.9 12.7 3 39.5 3.7 53.3 1.5 12.4-2.1 30.6-8 41.5-13.4 27.4-13.8 51-37.4 64.7-64.8 10.5-21 14.6-39 14.6-63.8 0-25.6-4-43.5-14.5-64.3C575.8 36.8 534 7 486.8 1c-9.6-1.2-29.7-1.1-38.1.1zm40.8 41.8c38.6 8 69.3 37.5 79.1 75.9 9.3 36.4-1.7 73.9-29.2 100.3-46.2 44.2-121.3 35.7-157.1-17.9-17.1-25.5-21.8-58.3-12.6-87.7 11.2-35.7 40.9-62.8 77.3-70.6 11.7-2.4 30.6-2.5 42.5 0z"/><path d="M458.9 71.3c-2.9 1.6-5.4 4-7.4 7.2l-3 4.8-.3 31-.3 31 2.6 5.2c4.7 9.7 15 13.9 25 10.1 5.3-2.1 11-8.1 12.4-13.3 1.4-5.1 1.4-58.5 0-63.6-1.3-4.7-7.2-11.5-11.6-13.4-5-2.1-12.3-1.6-17.4 1zm2.2 106.7c-5 2.2-8.5 5.6-10.9 10.8-4.8 10.6-1.4 22.1 8.3 27.8 4 2.3 5.4 2.6 10.9 2.2 8.6-.5 13.4-3.7 17.1-11.3 2.3-4.7 2.7-6.4 2.2-11-1.2-11.5-8.4-18.7-19.1-19.2-3.3-.2-7.2.2-8.5.7zM13.5 62.5c-5.2 1.8-11 8.3-12.4 13.9-1.5 6.1-1.6 422.4 0 427.9 1.3 4.7 6 10.2 11 12.8 3.8 1.9 8.4 1.9 258.9 1.9 250.5 0 255.1 0 258.9-1.9 5-2.6 9.8-8.2 11.1-13 .7-2.7 1-29.8.8-84.3l-.3-80.3-2.5-4.5c-7.4-13.1-25.6-13.7-34.5-1.2l-3 4.4-.3 69.9-.3 69.9H41V300.9c0-171.7.1-177.1 1.8-174.8 1 1.3 16.2 23.3 33.7 48.7 24.7 36 32.7 47 35.8 49l4.1 2.7 78.5.3c87.9.3 83.8.6 90.5-6.8 8.9-9.9 6.1-25.2-5.9-31.4-3.9-2.1-5.4-2.1-75.2-2.6l-71.2-.5-28.5-41.5-28.5-41.5 100.2-.5c111.5-.6 103 0 109.5-7.4 5.3-6.1 6.4-15.4 2.7-22.6-2.1-4-7.9-8.7-12.2-9.9C273.7 61.4 231 61 145 61c-106.8.1-128.2.3-131.5 1.5z"/></g></svg>