<svg version="1" xmlns="http://www.w3.org/2000/svg" width="549.333" height="549.333" viewBox="0 0 412.000000 412.000000"><path d="M160 55.6c-23.9 17.3-58.6 42.4-77 55.8-18.4 13.4-42.1 30.5-52.7 38.1C10.8 163.5 8 166.4 9.5 171c1 3.2 4.6 6 7.5 6 1.5 0 4.2-1 6.1-2.3 3.7-2.5 114.3-82.4 155.7-112.4 15.7-11.4 25.7-18.1 26.5-17.6.7.4 12.2 9.1 25.7 19.3 13.5 10.2 34.6 26.3 47 35.7 12.4 9.3 30.6 23.2 40.5 30.7 57.2 43.4 61.7 46.6 64.4 46.6 5.3 0 9.4-6.3 7.5-11.4-.7-1.9-13.7-12.1-46.4-36.6-13.5-10.1-39.3-29.7-57.5-43.5C233.6 45.3 205.2 24 204.3 24c-.4.1-20.4 14.3-44.3 31.6z"/><path d="M188 70.8c-8 5.9-38.6 28.4-68 50.1-29.4 21.7-57.8 43-62.9 47.5l-9.5 8.1 7.7.3 7.7.3v146.4l-8.8 3.4C38.6 333 1 352.3 1 354.2c0 .4 3.3-.8 7.3-2.6C29 342.1 47.1 338 68.5 338c19.9 0 39 2.9 66 10 31.9 8.4 44.3 11.4 59.5 14.4 30.8 6.1 56.7 8.8 84 8.7 21.5 0 31.8-2.2 47.9-10.2 14.2-7 22.6-15.2 30.5-30.1 9.4-17.6 14-42.4 12-65.3l-.8-10-.7 7.5c-.8 8.4-2.4 15.6-4.9 21.5-3.5 8.1-13.8 19.5-17.7 19.5-1.1 0-1.3-11.9-1.3-63.5v-63.4l7-.3 7-.3-75.2-57.9c-41.3-31.9-76.1-58.1-77.2-58.3-1.4-.2-7.1 3.4-16.6 10.5zM200 172v16h-36l.6-2.8c3.4-15.6 12.9-25.3 27.4-28.3 8.6-1.7 8-2.9 8 15.1zm21.5-12.9c10.1 3.8 17.9 13.5 20 25.1l.7 3.8H206v-32.3l5.1.7c2.8.4 7.5 1.6 10.4 2.7zM200 220v26h-36v-52h36v26zm42 0v26h-36v-52h36v26z"/><path d="M59 347.7c-22.3 2.1-39.9 7.9-55.2 18-6.7 4.5-4.1 4.3 3.9-.3 21.6-12.3 43.9-16 71.1-12 18.4 2.8 32.3 6.9 75.7 22.6 14.9 5.4 30.6 10.9 35 12.3 23 7.2 55.5 9.3 77.2 4.9 13.9-2.8 33.5-9 44.7-14.2 4.7-2.1 8.6-4.1 8.6-4.4 0-.3-.6-.4-1.2-.1-31.1 10.1-43.4 12.5-63.9 12.5-27.6 0-56.7-6.3-107.9-23.3-31.9-10.6-45.9-14.1-63.5-15.7-10.6-1-17.2-1.1-24.5-.3z"/></svg>