<svg version="1" xmlns="http://www.w3.org/2000/svg" width="512" height="682.667" viewBox="0 0 384.000000 512.000000"><path d="M174.5.6c-36.6 5.5-64.2 19.3-88.8 44.2-11.6 11.7-20.4 23.9-27.6 38.7-12.6 25.5-16 44.4-16.1 88.2V192H6.8l-3.4 3.4-3.4 3.4v138.5c0 135.3 0 138.6 2 144.9C6 495.1 16.9 506 29.8 510c6.3 2 9.7 2 162.2 2s155.9 0 162.2-2c12.9-4 23.8-14.9 27.8-27.8 2-6.3 2-9.6 2-144.9V198.8l-3.4-3.4-3.4-3.4H342v-20.3c-.1-43.8-3.5-62.7-16.1-88.2-17.6-35.9-49.1-63.5-86.4-75.8-16.2-5.4-24.8-6.8-44-7.2-9.9-.2-19.3-.1-21 .1zm38 66.3c28.9 7.5 51.4 28.5 60.3 56.1 3.6 11.1 4.2 17.6 4.2 43.7V192H107v-25.3c0-26.1.6-32.6 4.2-43.7 8.9-27.9 32.6-49.6 61.3-56.3 3.9-.9 8.6-1.9 10.5-2.1 6.5-.8 22.5.5 29.5 2.3zm-2.4 214.9c8.4 4 16 11.6 20.2 20.1 3 6.2 3.2 7.1 3.2 18.1 0 10.4-.3 12-2.7 17.3-1.5 3.2-5.2 8.4-8.3 11.6l-5.5 5.8 3.5 31.1c3.7 33.4 3.7 35.6-1 38.6-3.6 2.4-51.4 2.4-55 0-4.7-3-4.7-5.2-1-38.6l3.5-31.1-5.5-5.8c-3.1-3.2-6.8-8.4-8.3-11.6-2.4-5.3-2.7-6.9-2.7-17.3 0-11 .2-11.9 3.2-18 5.2-10.5 13.5-18 24.4-22 4.4-1.7 7.3-2 15.4-1.7 8.8.3 10.8.7 16.6 3.5z" fill="#67cc99"/></svg>