<?xml version="1.0" standalone="no"?>
<!DOCTYPE svg PUBLIC "-//W3C//DTD SVG 20010904//EN"
 "http://www.w3.org/TR/2001/REC-SVG-20010904/DTD/svg10.dtd">
<svg version="1.0" xmlns="http://www.w3.org/2000/svg"
 width="800.000000pt" height="792.000000pt" viewBox="0 0 800.000000 792.000000"
 preserveAspectRatio="xMidYMid meet">

<g transform="translate(0.000000,792.000000) scale(0.100000,-0.100000)"
fill="#67cc99" stroke="none">
<path d="M145 7896 c-60 -28 -97 -66 -124 -126 l-21 -45 0 -3765 0 -3765 24
-50 c28 -60 66 -97 126 -124 42 -19 65 -21 325 -21 260 0 283 2 325 21 60 27
98 64 126 124 l24 50 0 3765 0 3765 -21 45 c-27 60 -64 98 -124 126 -49 23
-56 24 -330 24 -274 0 -281 -1 -330 -24z"/>
<path d="M7195 7896 c-60 -28 -97 -66 -124 -126 l-21 -45 0 -3765 0 -3765 24
-50 c28 -60 66 -97 126 -124 42 -19 65 -21 325 -21 260 0 283 2 325 21 60 27
98 64 126 124 l24 50 0 3765 0 3765 -21 45 c-27 60 -64 98 -124 126 -49 23
-56 24 -330 24 -274 0 -281 -1 -330 -24z"/>
<path d="M2311 7464 c-169 -45 -337 -196 -411 -369 l-19 -45 -316 0 -315 0 0
-300 0 -300 314 0 315 0 42 -82 c32 -63 64 -104 128 -169 93 -93 165 -136 276
-164 224 -57 472 54 617 276 l51 78 36 -62 c105 -180 311 -306 503 -307 216 0
434 147 538 365 l31 65 1325 0 1324 0 0 300 0 300 -1324 0 -1325 0 -25 56
c-79 173 -231 307 -405 358 -68 20 -198 20 -271 1 -138 -37 -277 -142 -360
-273 -25 -40 -47 -71 -50 -71 -3 0 -23 29 -45 65 -79 130 -227 244 -360 279
-73 19 -202 18 -274 -1z"/>
<path d="M2781 4674 c-169 -45 -319 -177 -407 -356 l-28 -58 -548 0 -548 0 0
-300 0 -300 548 0 548 0 28 -57 c207 -425 696 -501 983 -154 30 36 70 99 90
139 l36 72 611 -1 611 0 39 -82 c31 -65 57 -99 125 -167 96 -95 170 -141 272
-165 182 -43 366 7 506 138 68 63 152 181 175 243 l12 34 458 0 458 0 0 300 0
300 -457 1 -458 0 -40 82 c-56 115 -179 240 -285 290 -165 77 -316 77 -480 0
-108 -52 -232 -177 -286 -290 l-39 -82 -611 0 -611 -1 -36 73 c-132 266 -412
410 -666 341z"/>
<path d="M2566 1884 c-82 -20 -190 -79 -258 -143 -62 -57 -150 -181 -169 -238
l-11 -33 -439 0 -439 0 0 -300 0 -300 438 0 438 0 12 -34 c23 -62 107 -180
173 -241 113 -105 235 -155 379 -155 226 0 420 131 536 362 l34 68 200 0 199
0 40 -77 c166 -318 497 -441 785 -291 92 48 221 182 274 286 l43 82 975 0 974
0 0 300 0 300 -978 0 -978 0 -12 34 c-23 63 -108 180 -175 242 -179 164 -411
198 -627 91 -98 -48 -224 -178 -275 -284 l-40 -82 -202 0 -202 -1 -43 83 c-57
109 -184 240 -278 285 -126 61 -249 76 -374 46z"/>
</g>
</svg>
