<?xml version="1.0" standalone="no"?>
<!DOCTYPE svg PUBLIC "-//W3C//DTD SVG 20010904//EN"
 "http://www.w3.org/TR/2001/REC-SVG-20010904/DTD/svg10.dtd">
<svg version="1.0" xmlns="http://www.w3.org/2000/svg"
 width="609.000000pt" height="612.000000pt" viewBox="0 0 609.000000 612.000000"
 preserveAspectRatio="xMidYMid meet">

<g transform="translate(0.000000,612.000000) scale(0.100000,-0.100000)"
fill="#67cc99" stroke="none">
<path d="M2196 6109 c-121 -29 -253 -132 -313 -245 -64 -120 -63 -108 -63
-871 l0 -693 -697 0 c-758 0 -747 1 -862 -57 -68 -34 -166 -130 -203 -199 -61
-114 -58 -7 -58 -1879 0 -1414 3 -1719 14 -1761 34 -127 131 -252 244 -312
120 -64 60 -62 1445 -62 691 0 1257 4 1257 9 0 4 -16 142 -35 305 -19 164 -35
302 -35 307 0 5 -447 9 -1130 9 l-1130 0 0 1505 0 1505 595 0 595 0 0 -686 c0
-763 1 -771 66 -881 65 -108 155 -182 270 -225 54 -19 83 -22 327 -26 l269 -4
-7 44 c-11 78 -65 553 -65 571 0 15 -12 17 -115 17 l-115 0 0 595 0 595 595 0
595 0 0 -185 0 -185 307 -150 c168 -83 310 -150 315 -150 5 0 8 195 6 458 -3
453 -3 457 -27 515 -38 97 -100 177 -177 232 -132 95 -79 90 -896 93 l-718 3
0 594 0 595 1505 0 1505 0 0 -1505 0 -1505 -67 0 c-37 0 -63 -4 -57 -8 5 -4
142 -73 304 -152 162 -79 314 -156 338 -172 24 -15 47 -28 52 -28 5 0 19 26
32 58 l23 57 0 1755 0 1755 -23 57 c-33 82 -102 171 -172 222 -33 25 -86 55
-118 68 l-57 23 -1740 2 c-1037 0 -1756 -3 -1779 -8z"/>
<path d="M3123 3030 c-30 -16 -48 -34 -63 -65 l-21 -44 161 -1393 c95 -820
168 -1411 177 -1436 28 -80 124 -116 200 -74 19 10 196 222 460 552 l428 534
645 224 c691 239 689 238 712 314 14 49 -1 104 -39 140 -37 34 -2538 1259
-2583 1264 -23 4 -49 -2 -77 -16z"/>
</g>
</svg>
