<?xml version="1.0" standalone="no"?>
<!DOCTYPE svg PUBLIC "-//W3C//DTD SVG 20010904//EN"
 "http://www.w3.org/TR/2001/REC-SVG-20010904/DTD/svg10.dtd">
<svg version="1.0" xmlns="http://www.w3.org/2000/svg"
 width="470.000000pt" height="488.000000pt" viewBox="0 0 470.000000 488.000000"
 preserveAspectRatio="xMidYMid meet">

<g transform="translate(0.000000,488.000000) scale(0.100000,-0.100000)"
fill="#67cc99" stroke="none">
<path d="M1490 4870 c-122 -6 -146 -14 -180 -57 -21 -26 -21 -34 -15 -164 l7
-137 -83 -27 c-96 -32 -230 -96 -308 -149 -29 -20 -57 -36 -61 -36 -4 0 -41
31 -81 68 -111 102 -126 112 -172 112 -37 0 -47 -6 -97 -57 -30 -32 -88 -95
-128 -141 -65 -74 -72 -86 -72 -125 0 -40 4 -46 104 -142 l105 -100 -39 -75
c-45 -90 -93 -223 -109 -305 -7 -33 -14 -67 -17 -76 -4 -13 -28 -17 -137 -23
-143 -7 -169 -16 -195 -70 -19 -38 0 -357 24 -393 31 -49 101 -58 296 -39 37
4 37 4 53 -49 27 -93 86 -223 141 -311 30 -48 54 -89 54 -93 0 -3 -36 -45 -80
-93 -43 -48 -84 -96 -89 -107 -12 -22 -14 -71 -5 -95 7 -18 239 -228 271 -244
12 -7 36 -12 54 -12 33 0 59 22 182 158 l49 53 91 -45 c108 -52 192 -81 302
-105 l80 -17 8 -129 c13 -213 22 -219 273 -204 185 11 206 17 229 72 12 30 13
127 1 249 l-4 37 82 27 c106 35 225 92 307 147 l66 45 79 -72 c44 -39 92 -82
108 -94 32 -24 79 -28 113 -9 33 18 243 257 249 284 12 48 -6 77 -107 173
l-101 96 41 82 c49 97 95 230 112 323 l12 66 140 10 140 9 30 34 30 34 -6 171
c-4 95 -11 184 -16 199 -6 14 -25 35 -43 46 -30 19 -43 20 -168 14 l-135 -6
-23 77 c-29 96 -87 219 -146 309 l-46 68 84 92 c88 97 106 123 106 155 0 42
-27 75 -153 186 -122 109 -131 115 -172 115 -49 0 -61 -10 -175 -138 l-65 -72
-68 36 c-88 47 -211 91 -315 114 -46 10 -85 20 -87 22 -2 2 -7 55 -10 118 -8
143 -18 176 -59 201 -33 20 -47 21 -256 9z m247 -1046 c181 -37 325 -147 406
-310 56 -112 73 -276 42 -399 -52 -202 -215 -367 -415 -420 -71 -19 -220 -19
-293 0 -168 44 -319 172 -386 328 -111 258 -22 561 210 716 133 89 280 118
436 85z"/>
<path d="M3820 3018 c-22 -12 -26 -21 -30 -88 l-5 -74 -56 -17 c-31 -9 -81
-30 -112 -46 l-54 -30 -51 49 c-30 28 -60 48 -73 48 -14 0 -46 -23 -86 -63
-79 -79 -81 -99 -18 -166 l45 -48 -30 -58 c-16 -31 -37 -81 -46 -111 l-15 -54
-62 0 c-98 0 -107 -11 -107 -124 0 -117 8 -126 103 -126 l66 0 16 -57 c9 -32
31 -84 48 -116 l30 -58 -46 -47 c-64 -65 -62 -82 16 -160 78 -77 95 -79 159
-15 l47 46 58 -30 c32 -17 84 -39 116 -48 l57 -16 0 -68 c0 -92 10 -101 121
-101 113 0 123 7 129 100 l5 72 55 18 c30 9 79 29 108 44 l54 27 48 -45 c67
-63 82 -61 163 23 37 38 67 72 67 76 0 16 -32 63 -63 94 l-35 33 33 67 c19 36
39 87 46 114 l11 47 68 0 c94 0 100 7 100 124 0 116 -8 126 -101 126 l-65 0
-18 58 c-10 31 -31 81 -47 111 l-29 54 50 53 c28 29 50 61 50 70 0 24 -132
154 -156 154 -11 0 -42 -22 -68 -49 l-48 -49 -66 33 c-36 19 -87 40 -114 46
l-48 13 0 62 c0 92 -16 108 -117 112 -50 2 -87 -2 -103 -10z m217 -534 c179
-86 207 -335 53 -467 -176 -151 -460 -20 -460 212 0 216 213 349 407 255z"/>
<path d="M2259 1902 c-137 -59 -141 -66 -94 -181 l32 -80 -62 -50 c-35 -27
-84 -77 -110 -110 -27 -34 -49 -61 -50 -61 -1 0 -35 14 -75 30 -84 35 -100 36
-128 13 -25 -21 -92 -185 -92 -223 0 -35 21 -53 103 -85 l67 -27 -6 -102 c-3
-55 -2 -126 3 -157 l10 -57 -79 -32 c-78 -32 -98 -50 -98 -88 0 -25 68 -191
88 -214 21 -25 59 -22 140 11 l70 29 50 -63 c28 -34 78 -84 111 -110 l60 -47
-21 -52 c-38 -93 -43 -122 -27 -146 17 -26 187 -100 229 -100 35 0 50 19 85
106 l29 70 55 -9 c53 -8 213 -3 242 8 10 4 23 -17 44 -67 33 -82 55 -108 88
-108 32 0 209 77 225 97 18 25 15 52 -17 127 l-29 69 98 96 c54 53 102 104
108 115 9 18 13 17 91 -15 114 -46 123 -42 178 86 23 55 42 109 43 120 0 36
-26 59 -104 90 l-76 30 7 35 c9 46 9 195 0 241 l-7 36 67 28 c77 32 113 60
113 87 0 33 -82 218 -101 228 -29 16 -60 11 -134 -20 -64 -28 -70 -29 -78 -12
-5 9 -54 61 -108 114 l-99 97 32 81 c42 108 38 115 -89 169 -148 62 -160 58
-212 -65 -15 -38 -34 -68 -40 -66 -43 9 -196 12 -243 5 l-57 -10 -28 69 c-50
122 -67 128 -204 70z m491 -588 c101 -30 180 -99 227 -199 24 -51 28 -73 28
-145 0 -75 -4 -93 -32 -152 -37 -79 -94 -137 -171 -175 -50 -25 -68 -28 -152
-28 -82 0 -103 4 -152 27 -154 72 -238 250 -198 417 46 193 256 313 450 255z"/>
</g>
</svg>
