<?xml version="1.0" standalone="no"?>
<!DOCTYPE svg PUBLIC "-//W3C//DTD SVG 20010904//EN"
 "http://www.w3.org/TR/2001/REC-SVG-20010904/DTD/svg10.dtd">
<svg version="1.0" xmlns="http://www.w3.org/2000/svg"
 width="595.000000pt" height="612.000000pt" viewBox="0 0 595.000000 612.000000"
 preserveAspectRatio="xMidYMid meet">

<g transform="translate(0.000000,612.000000) scale(0.100000,-0.100000)"
fill="#67cc99" stroke="none">
<path d="M160 6107 c-49 -16 -133 -102 -148 -153 -18 -60 -18 -5728 0 -5788
16 -55 99 -138 154 -154 31 -9 310 -12 1155 -12 l1114 0 50 24 c116 55 170
176 133 298 -16 53 -87 131 -140 154 -41 18 -92 19 -1010 22 l-968 3 0 2559 0
2560 2050 0 2050 0 0 -1391 c0 -1046 3 -1402 12 -1431 6 -22 31 -62 55 -88 56
-62 110 -84 197 -78 118 7 203 86 226 209 7 37 9 562 8 1570 -3 1511 -3 1514
-24 1559 -23 51 -71 102 -118 128 -29 16 -179 17 -2396 19 -1706 1 -2375 -2
-2400 -10z"/>
<path d="M1438 4680 c-125 -22 -218 -141 -205 -264 10 -95 60 -166 147 -205
44 -20 59 -21 1210 -21 1107 0 1167 1 1205 19 130 59 185 219 118 342 -30 55
-66 88 -129 116 -37 17 -109 18 -1169 19 -621 1 -1151 -2 -1177 -6z"/>
<path d="M1391 3313 c-88 -31 -161 -137 -161 -233 0 -89 61 -183 145 -225 39
-20 68 -20 1215 -20 l1175 0 41 22 c48 26 101 83 121 132 19 45 19 137 0 182
-20 49 -73 106 -121 132 l-41 22 -1165 2 c-1035 1 -1170 0 -1209 -14z"/>
<path d="M5604 2317 c-58 -28 -25 7 -873 -937 -304 -338 -556 -616 -560 -618
-4 -1 -164 149 -357 334 -244 236 -362 343 -393 356 -52 24 -142 26 -192 5
-50 -20 -106 -73 -132 -121 -30 -58 -30 -155 1 -217 30 -61 898 -900 974 -941
62 -34 150 -38 213 -9 50 23 30 0 895 964 488 543 732 823 747 855 26 55 31
145 9 196 -53 127 -212 190 -332 133z"/>
<path d="M1439 2010 c-62 -11 -98 -31 -141 -78 -116 -128 -76 -320 82 -391 43
-20 64 -21 430 -21 432 0 430 0 503 75 51 52 70 109 65 189 -7 117 -86 203
-207 226 -62 12 -663 12 -732 0z"/>
</g>
</svg>
