<?xml version="1.0" standalone="no"?>
<!DOCTYPE svg PUBLIC "-//W3C//DTD SVG 20010904//EN"
 "http://www.w3.org/TR/2001/REC-SVG-20010904/DTD/svg10.dtd">
<svg version="1.0" xmlns="http://www.w3.org/2000/svg"
 width="612.000000pt" height="519.000000pt" viewBox="0 0 612.000000 519.000000"
 preserveAspectRatio="xMidYMid meet">

<g transform="translate(0.000000,519.000000) scale(0.100000,-0.100000)"
fill="#67cc99" stroke="none">
<path d="M4487 5179 c-617 -90 -1100 -554 -1223 -1174 -27 -134 -25 -396 4
-531 48 -224 133 -414 262 -586 210 -279 503 -469 849 -549 127 -30 395 -37
533 -15 124 21 306 80 415 134 274 138 510 374 647 648 105 210 146 390 146
638 0 256 -40 435 -145 643 -217 435 -635 733 -1107 793 -96 12 -297 11 -381
-1z m408 -418 c386 -80 693 -375 791 -759 93 -364 -17 -739 -292 -1003 -462
-442 -1213 -357 -1571 179 -171 255 -218 583 -126 877 112 357 409 628 773
706 117 24 306 25 425 0z"/>
<path d="M4589 4477 c-29 -16 -54 -40 -74 -72 l-30 -48 -3 -310 -3 -310 26
-52 c47 -97 150 -139 250 -101 53 21 110 81 124 133 14 51 14 585 0 636 -13
47 -72 115 -116 134 -50 21 -123 16 -174 -10z"/>
<path d="M4611 3410 c-50 -22 -85 -56 -109 -108 -48 -106 -14 -221 83 -278 40
-23 54 -26 109 -22 86 5 134 37 171 113 23 47 27 64 22 110 -12 115 -84 187
-191 192 -33 2 -72 -2 -85 -7z"/>
<path d="M135 4565 c-52 -18 -110 -83 -124 -139 -15 -61 -16 -4224 0 -4279 13
-47 60 -102 110 -128 38 -19 84 -19 2589 -19 2505 0 2551 0 2589 19 50 26 98
82 111 130 7 27 10 298 8 843 l-3 803 -25 45 c-74 131 -256 137 -345 12 l-30
-44 -3 -699 -3 -699 -2299 0 -2300 0 0 1771 c0 1717 1 1771 18 1748 10 -13
162 -233 337 -487 247 -360 327 -470 358 -490 l41 -27 785 -3 c879 -3 838 -6
905 68 89 99 61 252 -59 314 -39 21 -54 21 -752 26 l-712 5 -285 415 -285 415
1002 5 c1115 6 1030 0 1095 74 53 61 64 154 27 226 -21 40 -79 87 -122 99 -26
7 -453 11 -1313 11 -1068 -1 -1282 -3 -1315 -15z"/>
</g>
</svg>
