<?xml version="1.0" standalone="no"?>
<!DOCTYPE svg PUBLIC "-//W3C//DTD SVG 20010904//EN"
 "http://www.w3.org/TR/2001/REC-SVG-20010904/DTD/svg10.dtd">
<svg version="1.0" xmlns="http://www.w3.org/2000/svg"
 width="384.000000pt" height="512.000000pt" viewBox="0 0 384.000000 512.000000"
 preserveAspectRatio="xMidYMid meet">

<g transform="translate(0.000000,512.000000) scale(0.100000,-0.100000)"
fill="#67cc99" stroke="none">
<path d="M1745 5114 c-366 -55 -642 -193 -888 -442 -116 -117 -204 -239 -276
-387 -126 -255 -160 -444 -161 -882 l0 -203 -176 0 -176 0 -34 -34 -34 -34 0
-1385 c0 -1353 0 -1386 20 -1449 40 -129 149 -238 278 -278 63 -20 97 -20
1622 -20 1525 0 1559 0 1622 20 129 40 238 149 278 278 20 63 20 96 20 1449
l0 1385 -34 34 -34 34 -176 0 -176 0 0 203 c-1 438 -35 627 -161 882 -176 359
-491 635 -864 758 -162 54 -248 68 -440 72 -99 2 -193 1 -210 -1z m380 -663
c289 -75 514 -285 603 -561 36 -111 42 -176 42 -437 l0 -253 -850 0 -850 0 0
253 c0 261 6 326 42 437 89 279 326 496 613 563 39 9 86 19 105 21 65 8 225
-5 295 -23z m-24 -2149 c84 -40 160 -116 202 -201 30 -62 32 -71 32 -181 0
-104 -3 -120 -27 -173 -15 -32 -52 -84 -83 -116 l-55 -58 35 -311 c37 -334 37
-356 -10 -386 -36 -24 -514 -24 -550 0 -47 30 -47 52 -10 386 l35 311 -55 58
c-31 32 -68 84 -83 116 -24 53 -27 69 -27 173 0 110 2 119 32 180 52 105 135
180 244 220 44 17 73 20 154 17 88 -3 108 -7 166 -35z"/>
</g>
</svg>
