<?xml version="1.0" standalone="no"?>
<!DOCTYPE svg PUBLIC "-//W3C//DTD SVG 20010904//EN"
 "http://www.w3.org/TR/2001/REC-SVG-20010904/DTD/svg10.dtd">
<svg version="1.0" xmlns="http://www.w3.org/2000/svg"
 width="412.000000pt" height="412.000000pt" viewBox="0 0 412.000000 412.000000"
 preserveAspectRatio="xMidYMid meet">
<metadata>
Created by potrace 1.11, written by Peter Selinger 2001-2013
</metadata>
<g transform="translate(0.000000,412.000000) scale(0.100000,-0.100000)"
fill="#000000" stroke="none">
<path d="M1600 3564 c-239 -173 -586 -424 -770 -558 -184 -134 -421 -305 -527
-381 -195 -140 -223 -169 -208 -215 10 -32 46 -60 75 -60 15 0 42 10 61 23 37
25 1143 824 1557 1124 157 114 257 181 265 176 7 -4 122 -91 257 -193 135
-102 346 -263 470 -357 124 -93 306 -232 405 -307 572 -434 617 -466 644 -466
53 0 94 63 75 114 -7 19 -137 121 -464 366 -135 101 -393 297 -575 435 -529
402 -813 615 -822 615 -4 -1 -204 -143 -443 -316z"/>
<path d="M1880 3412 c-80 -59 -386 -284 -680 -501 -294 -217 -578 -430 -629
-475 l-95 -81 77 -3 77 -3 0 -732 0 -732 -88 -34 c-156 -61 -532 -254 -532
-273 0 -4 33 8 73 26 207 95 388 136 602 136 199 0 390 -29 660 -100 319 -84
443 -114 595 -144 308 -61 567 -88 840 -87 215 0 318 22 479 102 142 70 226
152 305 301 94 176 140 424 120 653 l-8 100 -7 -75 c-8 -84 -24 -156 -49 -215
-35 -81 -138 -195 -177 -195 -11 0 -13 119 -13 635 l0 634 70 3 70 3 -752 579
c-413 319 -761 581 -772 583 -14 2 -71 -34 -166 -105z m120 -1012 l0 -160
-180 0 -180 0 6 28 c34 156 129 253 274 283 86 17 80 29 80 -151z m215 129
c101 -38 179 -135 200 -251 l7 -38 -181 0 -181 0 0 161 0 162 51 -7 c28 -4 75
-16 104 -27z m-215 -609 l0 -260 -180 0 -180 0 0 260 0 260 180 0 180 0 0
-260z m420 0 l0 -260 -180 0 -180 0 0 260 0 260 180 0 180 0 0 -260z"/>
<path d="M590 643 c-223 -21 -399 -79 -552 -180 -67 -45 -41 -43 39 3 216 123
439 160 711 120 184 -28 323 -69 757 -226 149 -54 306 -109 350 -123 230 -72
555 -93 772 -49 139 28 335 90 447 142 47 21 86 41 86 44 0 3 -6 4 -12 1 -311
-101 -434 -125 -639 -125 -276 0 -567 63 -1079 233 -319 106 -459 141 -635
157 -106 10 -172 11 -245 3z"/>
</g>
</svg>
